<svg width="125" height="20" viewBox="0 0 125 20" fill="none" xmlns="http://www.w3.org/2000/svg">
<g clip-path="url(#clip0_141_25)">
<path fill-rule="evenodd" clip-rule="evenodd" d="M72.5852 4.29228L72.5813 4.29032C73.0478 3.78099 73.5646 3.24006 74.1055 2.71961C73.4473 2.39877 72.8394 2.03508 72.2513 1.68326C70.977 0.920913 69.7957 0.214245 68.3976 0.119674C67.3132 0.0525546 66.2276 0.231994 65.2224 0.644518C65.2224 0.644518 64.6789 -0.0932516 63.0054 0.145823C61.3318 0.384898 56.1768 2.53844 51.7838 9.56126C47.8129 15.9098 49.6788 19.5501 52.5309 19.5108C55.6221 19.4679 58.5619 16.0312 59.5593 13.1978C60.5567 10.3644 59.38 9.59675 58.476 9.66959C57.4768 9.75364 55.7117 10.6427 54.7405 12.6076C53.7692 14.5725 53.7692 15.7828 53.7692 15.7828C54.1662 15.3663 54.5979 14.9845 55.0599 14.6416C55.4756 14.3169 55.9337 14.0505 56.4215 13.8496C56.5356 13.3419 56.7054 12.8484 56.9276 12.3778C57.2788 11.6457 57.8354 10.8836 58.5227 10.7118C59.9179 10.3625 59.2493 12.9064 58.2239 14.565C57.6729 15.4503 55.7173 18.011 54.0382 18.011C52.3591 18.011 52.0378 16.3935 52.3908 14.875C52.7438 13.3565 53.235 11.4365 55.6893 7.94003C58.1436 4.44357 60.7976 2.37034 62.3348 1.50183C63.9131 0.607163 64.5556 0.999394 64.5556 0.999394C64.5556 0.999394 62.5403 2.23586 61.3935 3.73008C60.299 5.15706 59.6434 6.76147 60.1514 7.5478C60.637 8.29678 62.3423 8.31172 64.2231 5.59972C66.0797 2.92133 65.6128 1.32813 65.6128 1.32813C65.735 1.28839 65.8598 1.25718 65.9863 1.23474C66.8922 1.11333 67.6169 1.35427 68.7375 1.92955C69.2841 2.2102 69.8205 2.56966 70.3934 2.95361C71.0511 3.39429 71.757 3.86733 72.5813 4.29032L72.5796 4.29228H72.5852ZM64.9777 1.53545C64.9777 1.53545 63.7823 2.01173 62.3927 3.5433C61.0031 5.07487 60.1925 6.79883 60.792 7.25456C61.0218 7.42826 61.5522 7.45815 62.516 6.5915C63.4046 5.8197 64.1021 4.85239 64.5537 3.76557C65.1402 2.3356 64.9977 1.63455 64.9795 1.54502C64.9784 1.53959 64.9777 1.53641 64.9777 1.53545Z" fill="#F40001"/>
<path d="M75.0065 5.15967L75.0057 5.16064C78.2705 5.80689 81.1301 3.78409 82.6505 2.06201C83.2053 1.44574 83.6826 0.763919 84.0718 0.0317383C83.3794 0.752613 82.6045 1.38954 81.7633 1.9294L81.7539 1.92753C80.3382 2.83527 78.3789 3.65895 76.4962 3.47778C76.0199 3.97087 75.51 4.54054 75.002 5.15877L75.0065 5.15967Z" fill="#F40001"/>
<path fill-rule="evenodd" clip-rule="evenodd" d="M76.1564 16.763C75.8856 17.1963 75.5774 18.0274 76.4721 17.5101C77.561 16.8806 79.1131 14.5216 79.1131 14.5216H79.8154C79.1754 15.5075 78.4624 16.444 77.6824 17.3233C76.5786 18.5467 75.2319 19.658 74.2831 19.5478C73.1755 19.4189 73.5229 17.9639 73.5229 17.9639C73.5229 17.9639 71.9315 19.6449 70.8389 19.531C69.3577 19.3666 69.8097 17.5362 69.8097 17.5362C69.8097 17.5362 68.1287 19.5908 66.9931 19.5291C65.2038 19.4264 65.654 17.243 66.1508 15.7151C66.4179 14.8952 66.6644 14.2508 66.6644 14.2508C66.6644 14.2508 66.487 14.2975 66.1041 14.3535C65.9042 14.3815 65.5438 14.4021 65.5438 14.4021C65.1331 15.1263 64.6855 15.8288 64.2027 16.5071C63.6069 17.299 61.0761 20.0203 59.5818 19.475C58.2034 18.9707 58.6591 16.8601 59.4623 15.1791C60.6334 12.7342 63.9281 9.22095 65.8277 9.68228C67.7982 10.1604 65.8725 13.754 65.8725 13.754C65.8725 13.754 65.8725 13.767 65.893 13.7764C66.0174 13.7988 66.1454 13.7918 66.2666 13.7558C66.5129 13.706 66.7541 13.6341 66.9875 13.541C66.9875 13.541 68.9674 9.39465 71.1545 6.68264C73.3417 3.97064 77.7104 -0.695054 79.4232 0.434948C79.8415 0.713245 79.651 1.66955 79.087 2.8313C78.8328 2.91169 78.5747 2.97902 78.3137 3.03302C78.6265 2.51424 78.863 1.95314 79.016 1.36697C79.2737 -0.0338627 76.0014 2.91909 73.663 6.09803C72.2566 8.01311 71.0073 10.0387 69.9274 12.1552C70.3499 11.8984 70.7532 11.6112 71.134 11.296C72.1772 10.4309 73.1688 9.5054 74.1038 8.52427C75.0008 7.60008 75.8422 6.62338 76.6234 5.59934C76.8736 5.58757 77.123 5.56201 77.3705 5.52276C76.5156 6.6821 75.584 7.78282 74.5819 8.81751C74.4993 8.90006 74.4162 8.98332 74.3326 9.06702C73.4707 9.93014 72.5618 10.8403 71.7616 11.5145C70.9803 12.1828 70.1561 12.7993 69.2942 13.3599C69.2942 13.3599 67.2397 17.4839 68.3604 17.7491C69.0141 17.906 70.3066 15.9169 70.3066 15.9169C70.3066 15.9169 71.9876 13.3449 73.0074 12.1813C74.3858 10.6124 75.5793 9.70843 76.7653 9.68415C77.4601 9.67108 77.8692 10.4125 77.8692 10.4125L78.196 9.90642H80.2076C80.2076 9.90642 76.4515 16.2792 76.1508 16.7592L76.1564 16.763ZM77.4172 11.126C77.4417 11.0827 77.4617 11.037 77.4769 10.9897C77.4674 10.915 77.4325 10.8459 77.3781 10.7939C77.3237 10.7419 77.2531 10.7101 77.1781 10.7039C76.8681 10.689 76.4422 10.7487 75.3309 11.9796C74.4074 12.9988 73.6132 14.128 72.9663 15.3416C72.3294 16.5052 72.0716 17.3718 72.4377 17.596C72.5564 17.657 72.6938 17.671 72.8225 17.6352C73.0709 17.5754 73.351 17.3438 73.7788 16.8489C73.9388 16.6634 74.1132 16.4156 74.3126 16.1324L74.3145 16.1297C74.3635 16.0602 74.414 15.9884 74.4661 15.915C75.202 14.9139 77.0511 11.7611 77.4172 11.1242V11.126ZM65.8631 12.4633C66.0499 11.9777 66.2853 11.0252 65.794 10.6516C65.2655 10.2538 63.9263 11.1858 63.9132 12.1458C63.9001 13.1059 64.8602 13.5672 65.0899 13.6288C65.2206 13.6643 65.2655 13.6587 65.329 13.5541C65.5321 13.2046 65.7106 12.8414 65.8631 12.4671V12.4633ZM64.8452 14.2471C64.5118 14.0929 64.2008 13.8944 63.9207 13.6569C63.6386 13.4213 63.4024 13.1357 63.224 12.8145C63.2085 12.7882 63.1931 12.8054 63.1766 12.8237C63.1731 12.8276 63.1696 12.8315 63.1661 12.835C63.145 12.8561 63.0613 12.9398 62.3443 13.9893C61.6233 15.0446 60.5251 17.2187 61.5224 17.5904C62.1612 17.8276 63.224 16.7088 63.8067 15.9673C64.2012 15.4501 64.5588 14.9059 64.877 14.3386C64.9069 14.2751 64.877 14.2601 64.8452 14.2471Z" fill="#F40001"/>
<path d="M53.5204 5.05615H51.6078L50.5264 6.80438H52.439L53.5204 5.05615Z" fill="#F40001"/>
<path fill-rule="evenodd" clip-rule="evenodd" d="M49.0302 9.83933H49.725C49.725 9.83933 46.2136 14.9141 44.2282 14.6825C43.1206 14.5536 43.4493 13.1882 43.4493 13.1882C43.4493 13.1882 41.8897 15.0093 40.4609 14.6451C39.1646 14.3126 40.0014 12.1591 40.0014 12.1591C39.9793 12.168 39.8978 12.2463 39.7686 12.3705C39.0339 13.0765 36.7556 15.2657 35.0798 14.6208C33.0253 13.8252 34.088 11.1785 34.4803 10.3828C34.8127 9.71232 35.1807 9.0586 35.1807 9.0586C35.1807 9.0586 34.865 9.14825 34.667 9.19308C34.4691 9.2379 34.1721 9.29581 34.1721 9.29581C34.1721 9.29581 33.1971 10.8815 32.6013 11.6716C32.0055 12.4617 29.4709 15.1812 27.9785 14.6395C26.4862 14.0978 26.8579 12.0097 27.6946 10.3436C29.0544 7.65404 32.2819 4.34808 34.2318 4.84491C36.1818 5.34173 34.5699 8.53002 34.5699 8.53002C34.5699 8.53002 34.9603 8.58045 35.896 7.94167C36.2825 7.67868 36.7038 7.28842 37.1534 6.87205C38.2746 5.83354 39.5711 4.63265 40.939 4.8393C41.843 4.97565 42.6854 5.90393 41.533 7.66524C41.1594 8.22557 40.5449 8.73734 40.0705 8.23678C39.7754 7.9286 40.0331 7.35893 40.3432 6.97043C40.4644 6.81211 40.6227 6.68604 40.8041 6.60331C40.9855 6.52058 41.1845 6.48373 41.3835 6.49602C41.3835 6.49602 41.7011 5.76572 40.8923 5.78066C40.2367 5.79373 38.5781 7.3197 37.6424 8.86248C36.7944 10.2839 35.4963 12.697 36.7944 13.2237C37.9917 13.7075 40.2703 11.0029 41.3256 9.58531C42.3809 8.16767 44.7829 4.95511 46.8001 4.82623C47.4949 4.7814 47.9077 5.41458 47.9077 5.41458L48.1411 5.04102H50.1546C50.1546 5.04102 46.363 11.3896 46.066 11.8659C45.8326 12.2394 45.5225 13.0855 46.3817 12.613C47.2409 12.1404 49.0302 9.83933 49.0302 9.83933ZM44.4635 11.1038C45.2778 9.98315 47.5229 6.0795 47.5229 6.0795C47.5133 6.00486 47.4784 5.93576 47.424 5.88375C47.3696 5.83174 47.2991 5.79996 47.2241 5.79374C46.914 5.77879 46.3985 5.88339 45.3563 7.17215C44.3141 8.46091 43.5371 9.48632 42.9581 10.5528C42.3193 11.7164 42.041 12.5383 42.4071 12.7605C42.5261 12.8207 42.6631 12.8346 42.7918 12.7997C43.0309 12.74 43.3428 12.5009 43.7706 12.0078C43.9723 11.7781 44.2001 11.468 44.4672 11.1038H44.4635ZM34.2038 5.81802C33.6752 5.41831 32.3361 6.3522 32.323 7.31223C32.3099 8.27227 33.537 8.57111 33.6958 8.57858C33.7312 8.58792 33.7687 8.58528 33.8025 8.5711C33.8363 8.55691 33.8644 8.53197 33.8826 8.50014C34.0262 8.21872 34.1553 7.93008 34.2692 7.63536C34.456 7.14974 34.6894 6.19717 34.1982 5.82362L34.2038 5.81802ZM33.4007 9.18561C33.0363 9.07164 32.6879 8.91159 32.3641 8.70933C32.0482 8.50534 31.7908 8.22279 31.617 7.88937C31.6007 7.8617 31.583 7.88226 31.5663 7.90161C31.5639 7.90446 31.5615 7.90728 31.5591 7.90992C31.5404 7.93047 31.4321 8.07242 30.713 9.12771C29.9939 10.183 28.9274 12.3421 29.9266 12.712C30.5654 12.9492 31.6394 11.8266 32.2203 11.0851C32.658 10.5064 33.0627 9.90335 33.4324 9.279C33.4567 9.21549 33.4324 9.20055 33.3969 9.18934L33.4007 9.18561Z" fill="#F40001"/>
<path d="M47.9329 20C46.4475 18.972 44.669 18.4529 42.8638 18.5207C42.3752 18.5339 41.8965 18.6622 41.4668 18.8953C41.0371 19.1283 40.6685 19.4594 40.3909 19.8618C39.6214 18.5189 38.101 17.6952 35.7495 17.7138C33.7585 17.7364 31.7753 18.2283 29.9091 18.6911C28.2144 19.1114 26.6162 19.5078 25.1966 19.5069C22.3314 19.5069 20.2451 17.7064 20.3142 14.5106C20.4375 8.90731 25.1704 3.86433 28.7192 1.58938C30.7532 0.281943 32.4547 -0.102817 33.5754 0.0223231C34.3879 0.111976 35.3647 1.05147 34.7483 2.43548C33.8425 4.46202 32.5911 4.29205 32.6378 3.32454C32.6572 3.07215 32.7363 2.82797 32.8684 2.61206C33.0006 2.39614 33.1821 2.21465 33.3979 2.08247C33.6271 1.95775 33.8842 1.89347 34.1451 1.8957C34.3318 1.74441 34.4607 0.63682 33.0038 1.00104C31.547 1.36525 29.7726 2.79783 28.0991 4.64692C26.4256 6.49602 23.8219 9.98875 23.1775 13.6571C22.8768 15.3586 23.0766 18.461 27.0998 18.4273C28.651 18.4146 30.5382 17.944 32.5704 17.4373C35.0139 16.8281 37.6668 16.1666 40.1966 16.186C41.8103 16.1792 43.3951 16.6132 44.7801 17.4412C45.9793 18.1883 47.4156 19.2566 47.9255 19.9925L47.9329 20Z" fill="#F40001"/>
<path d="M11.2773 12.7342H15.3154L15.1828 11.8152H12.327V10.6946H14.2508V9.76067H12.327V8.8081H15.1286L15.2631 7.88916H11.2792L11.2773 12.7342Z" fill="#F40001"/>
<path d="M5.30078 12.7343H6.35047V10.5919H8.8234V12.7324H9.87682V7.90421H8.82527V9.65431H6.35047V7.90234H5.30639L5.30078 12.7343Z" fill="#F40001"/>
<path d="M0 8.84548H1.61002V12.7286H2.66344V8.84548H4.27346V7.90039H0V8.84548Z" fill="#F40001"/>
<path d="M123.234 7.91544H124.394L122.483 11.1205V12.7436H121.43V11.1411L119.5 7.91357H120.686L121.966 10.1736L123.234 7.91544Z" fill="#F40001"/>
<path d="M117.647 11.1839V7.91528L118.673 7.90967V12.7379H117.614L115.27 9.41136V12.7379H114.244V7.90967H115.335L117.647 11.1839Z" fill="#F40001"/>
<path fill-rule="evenodd" clip-rule="evenodd" d="M113.322 12.7402H112.214L111.812 11.6625H109.692L109.291 12.7346H108.191L110.113 7.9082H111.407L113.322 12.7402ZM110.759 8.84021L110.036 10.7547L111.476 10.7529L110.759 8.84021Z" fill="#F40001"/>
<path fill-rule="evenodd" clip-rule="evenodd" d="M104.001 7.90631H106.484C106.806 7.89589 107.127 7.96383 107.418 8.10429C107.66 8.22416 107.86 8.41421 107.993 8.64968C108.121 8.89172 108.188 9.16133 108.188 9.43508C108.188 9.70883 108.121 9.97844 107.993 10.2204C107.859 10.4562 107.659 10.6472 107.418 10.7696C107.127 10.9107 106.807 10.9793 106.484 10.9694H105.055V12.7326H104.001V7.90631ZM105.062 10.0374H106.465C106.642 10.0489 106.816 9.99214 106.952 9.87867C107.065 9.75831 107.127 9.59976 107.127 9.43508C107.127 9.2704 107.065 9.11185 106.952 8.99148C106.814 8.88105 106.64 8.82581 106.463 8.83646H105.062V10.0374Z" fill="#F40001"/>
<path d="M101.187 7.90625H102.601L102.602 12.7363H101.583V9.18754L100.1 12.6616H99.3952L97.929 9.27533V12.7289H96.9092V7.90625H98.3231L99.7687 11.2683L101.187 7.90625Z" fill="#F40001"/>
<path fill-rule="evenodd" clip-rule="evenodd" d="M94.5133 12.4955C94.1032 12.7116 93.6451 12.8208 93.1816 12.813L93.176 12.8149C92.7125 12.8222 92.2546 12.713 91.8443 12.4974C91.4614 12.2927 91.1437 11.9846 90.9272 11.6083C90.7091 11.2117 90.5947 10.7665 90.5947 10.3139C90.5947 9.86133 90.7091 9.41609 90.9272 9.01954C91.1444 8.64314 91.4628 8.33514 91.8461 8.13048C92.2588 7.92112 92.7151 7.81201 93.1779 7.81201C93.6406 7.81201 94.0969 7.92112 94.5096 8.13048C94.8985 8.33288 95.2222 8.64108 95.4435 9.01954C95.6609 9.41597 95.7749 9.86082 95.7749 10.313C95.7749 10.7651 95.6609 11.21 95.4435 11.6064C95.2232 11.9844 94.9008 12.2925 94.5133 12.4955ZM92.4158 11.6625C92.6489 11.7962 92.9137 11.8646 93.1824 11.8605C93.4514 11.8664 93.7167 11.7978 93.9492 11.6625C94.1733 11.5332 94.3565 11.3436 94.4778 11.1152C94.6031 10.8667 94.6684 10.5923 94.6684 10.3139C94.6684 10.0356 94.6031 9.76115 94.4778 9.51263C94.3576 9.28244 94.1742 9.0913 93.9492 8.96164C93.7147 8.83247 93.4512 8.76474 93.1835 8.76474C92.9157 8.76474 92.6522 8.83247 92.4177 8.96164C92.1935 9.08777 92.0091 9.2741 91.8854 9.49956C91.7556 9.74629 91.6913 10.0222 91.6986 10.3009C91.6924 10.5794 91.7566 10.855 91.8854 11.1021C92.006 11.3351 92.1898 11.5293 92.4158 11.6625Z" fill="#F40001"/>
<path d="M89.2106 12.6278C88.8568 12.7555 88.4829 12.8187 88.1068 12.8146L88.1124 12.8202C87.6244 12.8288 87.1418 12.7165 86.7078 12.4933C86.3079 12.2877 85.9724 11.9758 85.7381 11.5919C85.5039 11.2081 85.3799 10.7671 85.3799 10.3174C85.3799 9.86764 85.5039 9.42665 85.7381 9.04278C85.9724 8.65892 86.3079 8.34703 86.7078 8.14139C87.1366 7.9205 87.6133 7.80887 88.0956 7.8164C88.4719 7.80967 88.8462 7.873 89.1994 8.00317C89.519 8.11996 89.8037 8.31597 90.0268 8.57284L89.3712 9.30127C89.2042 9.12667 89.0051 8.98589 88.7848 8.88663C88.5754 8.79886 88.3505 8.75438 88.1236 8.75589C87.8323 8.75202 87.5449 8.82275 87.2887 8.96134C87.0463 9.09194 86.8437 9.28552 86.7022 9.52167C86.5543 9.75983 86.4772 10.0352 86.4799 10.3155C86.4761 10.5918 86.5489 10.8638 86.6904 11.1012C86.8318 11.3386 87.0363 11.5322 87.2812 11.6603C87.5417 11.8 87.8336 11.8708 88.1292 11.8658C88.3653 11.8697 88.5997 11.8248 88.8176 11.7338C89.0355 11.6429 89.2323 11.5078 89.3955 11.3372L90.053 12.0544C89.8261 12.3147 89.536 12.5121 89.2106 12.6278Z" fill="#F40001"/>
</g>
<defs>
<clipPath id="clip0_141_25">
<rect width="125" height="20" fill="white"/>
</clipPath>
</defs>
</svg>
