<?xml version="1.0" encoding="utf-8"?>
<!-- Generator: Adobe Illustrator 25.0.1, SVG Export Plug-In . SVG Version: 6.00 Build 0)  -->
<svg version="1.0" id="katman_1" xmlns="http://www.w3.org/2000/svg" xmlns:xlink="http://www.w3.org/1999/xlink" x="0px" y="0px"
	 viewBox="0 0 800 600" style="enable-background:new 0 0 800 600;" xml:space="preserve">
<style type="text/css">
	.st0{fill:#2C8EBB;}
	.st1{fill:#FFFFFF;}
</style>
<path class="st0" d="M479,301c-4.5,15.5-11.7,26.7-19.8,35.7v-78.9c0-5.4-4.7-9.9-12.1-9.9c-3.1,0-5.8,1.6-5.8,3.8
	c0,1.6,0.9,2.9,0.9,7.2v36.2c-2.7,15.7-9.4,30.3-18.4,30.3c-6.5,0-10.3-6.5-10.3-18.6c0-18.9,2.5-28.8,6.5-45.4
	c0.9-3.4,7.4-12.4-3.6-12.4c-11.9,0-10.3,4.5-11.9,8.3c0,0-7.5,26.7-7.5,50.6c0,19.5,8.2,32.4,23.3,32.4c9.7,0,16.6-6.5,22-15.5
	v28.5c-14.8,13-27.9,24.5-27.9,47.2c0,14.4,9,25.8,21.6,25.8c11.5,0,23.4-8.3,23.4-31.9v-38.9c12.1-10.6,25.2-23.8,32.8-49.9
	c0.2-0.9,0.2-2,0.2-2.2c0-4.3-4.3-9.2-7.9-9.2C482.1,294.3,480.3,296.3,479,301L479,301z M435.8,412.2c-3.6,0-5.8-5.4-5.8-12.4
	c0-13.5,4.9-22,12.1-29.4v24C442.1,398.7,443,412.2,435.8,412.2L435.8,412.2z"/>
<path class="st0" d="M543.5,325.3c-5.4,0-7.6-5.4-7.6-10.3v-37.1c0-5.4-4.7-9.9-12.1-9.9c-3.1,0-5.8,1.6-5.8,3.8
	c0,1.6,0.9,2.9,0.9,7.2v34.6c-2.5,6.3-6.5,11.7-12.6,11.7c-7.9,0-12.8-6.7-12.8-18.4c0-32.4,20-47,37.1-47c2.2,0,4.5,0.4,6.5,0.4
	c2.2,0,2.9-1.3,2.9-5.2c0-5.8-4.3-9.4-10.3-9.4c-27.4,0-53.5,22.9-53.5,60.4c0,19.1,9.2,33.9,26.7,33.9c8.5,0,14.8-4,19.3-9.2
	c3.4,5.4,9.4,9.2,17.3,9.2c19.3,0,28.3-20.2,32.1-35.1c0.2-0.9,0.2-1.3,0.2-1.6c0-4.3-4.3-9.2-7.9-9.2c-2.2,0-4.5,2-5.4,6.7
	C556.5,310.9,552.5,325.3,543.5,325.3L543.5,325.3z"/>
<path class="st0" d="M608.4,340.1c19.3,0,28.1-20.2,32.1-35.1c0-0.4,0.2-0.9,0.2-1.6c0-4.3-4.3-9.2-7.9-9.2c-2.2,0-4.5,2-5.4,6.7
	c-2,9.9-5.8,24.3-16.2,24.3c-6.1,0-9-5.8-9-12.1c0-22.5,10.1-49,10.1-51.7c0.9-5.2-8.1-12.6-10.8-12.6H590c-2.2,0-4.5,0-11.9-0.9
	c-2.5-9.2-8.8-11.9-14.2-11.9c-5.8,0-11.2,4-11.2,10.3c0,6.5,4,11.2,9.7,14.4c-0.2,11.5-1.1,30.1-3.6,39.1c-2,7.6,9.7,15.7,12.6,6.3
	c4-13,5.4-32.6,5.6-41.3h19.5c-7.2,19.3-11.2,35.3-11.2,49.7C585.3,334.2,597.8,340.1,608.4,340.1L608.4,340.1z"/>
<path class="st0" d="M628.4,330.2c0,8.3,6.3,9.9,10.8,9.9c6.5,0,6.3-5.4,6.3-9.7v-32.8c1.6-17.8,15.5-37.1,22-37.1
	c4.3,0,4.7,5.8,4.7,12.8V319c0,11.5,7,21.1,18.9,21.1c19.3,0,28.9-20.2,32.7-35.1c0.2-0.9,0.2-1.3,0.2-1.6c0-4.3-4.3-9.2-7.9-9.2
	c-2.2,0-4.5,2-5.4,6.7c-2,9.9-6.6,24.3-15.6,24.3c-5.8,0-5.8-8.3-5.8-10.3v-46.5c0-10.3-3.6-22.7-18.6-22.7
	c-11,0-19.1,9.7-25.2,22.2v-10.1c0-5.4-4.7-9.9-12.1-9.9c-3.1,0-5.8,1.6-5.8,3.8c0,1.6,0.9,2.9,0.9,7.2L628.4,330.2L628.4,330.2z
	 M220.8,156.2c80.3,0,145.5,65.2,145.5,145.5s-65.2,145.5-145.5,145.5S75.3,382,75.3,301.7S140.5,156.2,220.8,156.2z"/>
<path class="st1" d="M319.8,345.8c-1-8-7.8-13.5-16.4-13.4c-12.9,0.2-23.8,6.9-31,11.3c-2.8,1.7-5.2,3-7.3,4
	c0.4-6.5,0.1-15.1-3.3-24.4c-4.1-11.2-9.6-18.1-13.5-22.1c4.5-6.6,10.8-16.3,13.7-31.2c2.5-12.8,1.7-32.6-4-43.7
	c-1.2-2.2-3.1-3.9-5.6-4.5c-1-0.3-2.9-0.8-6.7,0.2c-5.7-11.7-7.6-13-9.2-14c-3.1-2-6.9-2.5-10.3-1.2c-4.7,1.7-8.7,6.2-12.4,14.2
	c-0.6,1.2-1.1,2.3-1.5,3.4c-7.1,0.5-18.4,3.1-27.9,13.4c-1.2,1.3-3.5,2.2-5.9,3.1h0.1c-4.9,1.7-7.2,5.8-9.9,13.1
	c-3.8,10.2,0.1,20.3,4,26.8c-5.3,4.7-12.3,12.2-16,21.1c-4.6,10.9-5.1,21.6-4.9,27.4c-3.9,4.2-10,12-10.7,20.7
	c-0.9,12.2,3.5,20.6,5.5,23.6c0.6,0.9,1.2,1.6,1.9,2.4c-0.2,1.5-0.3,3.1,0.1,4.8c0.7,3.9,3.2,7.1,7,9.2c7.4,3.9,17.8,5.6,25.7,1.6
	c2.9,3,8.1,6,17.6,6h0.6c2.4,0,33.1-1.6,42-3.8c4-1,6.7-2.6,8.5-4.2c5.7-1.8,21.6-7.2,36.5-16.9c10.6-6.9,14.2-8.3,22.1-10.2
	C316,360.4,320.7,353.5,319.8,345.8L319.8,345.8z M306.4,354c-9,2.1-13.5,4.1-24.7,11.3c-17.4,11.2-36.3,16.5-36.3,16.5
	s-1.6,2.4-6.1,3.4c-7.9,1.9-37.5,3.5-40.2,3.6c-7.2,0.1-11.7-1.9-12.9-4.8c-3.8-9,5.4-12.9,5.4-12.9s-2-1.2-3.2-2.4
	c-1.1-1.1-2.2-3.2-2.5-2.4c-1.4,3.4-2.1,11.8-5.9,15.6c-5.2,5.2-14.9,3.5-20.7,0.4c-6.3-3.4,0.4-11.3,0.4-11.3s-3.4,2-6.2-2.1
	c-2.5-3.8-4.8-10.3-4.2-18.4c0.7-9.2,10.9-18,10.9-18s-1.8-13.5,4.1-27.4c5.3-12.6,19.7-22.8,19.7-22.8s-12.1-13.4-7.6-25.4
	c2.9-7.9,4.1-7.8,5.1-8.1c3.4-1.3,6.6-2.7,9-5.3c12.1-13,27.5-10.6,27.5-10.6s7.3-22.2,14-17.9c2.1,1.3,9.5,18,9.5,18s8-4.7,8.9-2.9
	c4.8,9.4,5.4,27.3,3.3,38.2c-3.6,18-12.6,27.6-16.2,33.7c-0.8,1.4,9.7,5.8,16.3,24.2c6.1,16.8,0.7,30.9,1.6,32.5
	c0.2,0.3,0.2,0.4,0.2,0.4s7,0.6,21.1-8.1c7.5-4.7,16.5-9.9,26.6-10C313.3,340.7,313.8,352.2,306.4,354L306.4,354z"/>
</svg>
