<?xml version="1.0" standalone="no"?>
<!DOCTYPE svg PUBLIC "-//W3C//DTD SVG 20010904//EN"
 "http://www.w3.org/TR/2001/REC-SVG-20010904/DTD/svg10.dtd">
<svg version="1.0" xmlns="http://www.w3.org/2000/svg"
 width="466.000000pt" height="466.000000pt" viewBox="0 0 466.000000 466.000000"
 preserveAspectRatio="xMidYMid meet">
<metadata>
Created by potrace 1.14, written by Peter Selinger 2001-2017
</metadata>
<g transform="translate(0.000000,466.000000) scale(0.100000,-0.100000)"
fill="#000000" stroke="none">
<path d="M2255 4627 c-22 -13 -132 -77 -245 -142 -260 -150 -316 -182 -365
-210 -22 -13 -80 -46 -130 -75 -49 -29 -196 -113 -325 -188 -129 -74 -264
-152 -299 -173 -34 -22 -65 -39 -66 -39 -2 0 -54 -29 -115 -65 -61 -36 -130
-76 -153 -89 -157 -89 -213 -124 -231 -149 l-21 -28 0 -1139 0 -1139 21 -28
c13 -17 158 -107 380 -236 197 -115 368 -213 379 -218 11 -5 34 -18 50 -28 17
-10 147 -86 290 -168 143 -83 397 -230 565 -327 234 -135 313 -176 340 -176
37 0 13 -13 690 379 223 129 416 240 430 247 14 8 214 123 444 256 263 153
427 253 440 271 l21 28 0 1139 0 1139 -21 28 c-11 15 -88 67 -170 114 -82 47
-295 171 -474 274 -179 103 -341 197 -360 208 -19 11 -150 86 -290 167 -140
81 -271 157 -290 168 -19 11 -114 65 -211 121 -194 111 -216 117 -284 78z"/>
</g>
</svg>
