<svg xmlns="http://www.w3.org/2000/svg" viewBox="0 0 405.14 464.11"><defs><style>.cls-1,.cls-4{fill:#fff;}.cls-1{stroke:#e6e7e8;stroke-miterlimit:10;}.cls-2{fill:none;stroke-width:3px;}.cls-2,.cls-3{stroke:#231f20;stroke-linecap:round;stroke-linejoin:round;}.cls-3{fill:#231f20;stroke-width:4.58px;}</style></defs><g id="Layer_2" data-name="Layer 2"><g id="Layer_1-2" data-name="Layer 1"><path class="cls-1" d="M.5,122V342.11A11.45,11.45,0,0,0,6.23,352L196.84,462.08a11.48,11.48,0,0,0,11.45,0L398.91,352a11.47,11.47,0,0,0,5.73-9.92V122a11.44,11.44,0,0,0-5.73-9.91L208.29,2a11.48,11.48,0,0,0-11.45,0L6.23,112.09A11.42,11.42,0,0,0,.5,122Z"/><path class="cls-2" d="M21,150.19V329.13a9.32,9.32,0,0,0,4.66,8.06l155,89.47a9.31,9.31,0,0,0,4.65,1.24,9.23,9.23,0,0,0,1.25-4.65V244.31"/><path class="cls-2" d="M383.41,150.71a3.85,3.85,0,0,0-5.81-3.12l-154.1,89a9.3,9.3,0,0,0-4.64,8.05V423.26a9.28,9.28,0,0,0,1.24,4.64h-.62a9.25,9.25,0,0,0,4.64-1.24l154.65-89.28a9.3,9.3,0,0,0,4.64-8.05V150.71Z"/><path class="cls-3" d="M367.58,114.8,207,22.19a9.52,9.52,0,0,0-9.52,0L39.1,113.65a9.47,9.47,0,0,0-3.49,3.48l-.32-.55a9.65,9.65,0,0,0,3.49,3.49l158.41,91.46a9.52,9.52,0,0,0,9.52,0l158.41-91.46c1.48-.86,3.45-3.56,2.46-5.27"/><path class="cls-4" d="M157.86,93.72l3.46,26a.32.32,0,0,0,.27.27l26,3.46a.31.31,0,0,1,0,.61l-26,3.47a.32.32,0,0,0-.27.27l-3.46,26a.31.31,0,0,1-.61,0l-3.47-26a.32.32,0,0,0-.27-.27l-26-3.47a.31.31,0,0,1,0-.61l26-3.46a.32.32,0,0,0,.27-.27l3.47-26A.31.31,0,0,1,157.86,93.72Z"/><circle class="cls-4" cx="208.55" cy="74.24" r="3.73"/><circle class="cls-4" cx="275.9" cy="98.08" r="3.73"/><circle class="cls-4" cx="242.67" cy="144.91" r="5.28"/></g></g></svg>